# File created by Blade
# Date/Time:  Wed Jan 21 18:02:19 2015
# Frame Rate: 120.000 fps
#------------------------------------------------------
:FULLY-SPECIFIED
:DEGREES
813
root 18.640037 36.114420 -20.924312 -165.049109 23.913452 -172.690084
Spine -7.578017 4.073904 -6.952557
Head 4.122751 6.255377 17.057061
LeftShoulder -6.113381 -27.692926 2.700794
LeftArm 4.141912 15.644924 -73.814147
LeftForeArm -5.888684 -0.000000 7.943684
LeftHand 1.670668 -0.000000 6.043738
LeftHandThumb1 -26.253704 0.000000 33.147579
RightShoulder -8.566127 -15.595219 11.769437
RightArm 10.177998 -21.276792 62.864525
RightForeArm -24.002485 -0.000000 37.130279
RightHand -0.712750 -0.000000 8.610439
RightHandThumb1 -24.326973 -0.000000 -32.862282
LeftUpLeg -14.096675 19.372257 -7.106358
LeftLeg 5.592212 -0.000000 -0.000000
LeftFoot -23.983917 19.055567 -14.704886
LeftToeBase 28.293804 -0.000000 -0.000000
RightUpLeg -8.074221 -3.423925 9.757592
RightLeg 5.290458 -0.000000 -0.000000
RightFoot -25.627281 -23.416454 20.303323
RightToeBase 9.259157 -0.000000 -0.000000
814
root 18.632271 36.086541 -20.961847 -165.901417 23.258365 -173.142569
Spine -7.255125 3.710123 -7.104035
Head 4.434683 5.982891 16.853072
LeftShoulder -6.255556 -27.571662 2.683679
LeftArm 4.598972 15.735300 -73.745149
LeftForeArm -5.788059 -0.000000 8.337101
LeftHand 1.777249 -0.000000 6.136227
LeftHandThumb1 -26.253704 0.000000 33.147579
RightShoulder -8.605145 -15.763766 11.901163
RightArm 10.059618 -20.707443 62.715257
RightForeArm -24.043328 -0.000000 38.129396
RightHand -0.572923 -0.000000 8.590180
RightHandThumb1 -24.326973 -0.000000 -32.862282
LeftUpLeg -13.586008 19.274800 -7.223922
LeftLeg 6.027548 -0.000000 -0.000000
LeftFoot -24.151991 18.413297 -14.935185
LeftToeBase 28.461268 -0.000000 -0.000000
RightUpLeg -8.119856 -3.383869 9.457854
RightLeg 5.834466 -0.000000 -0.000000
RightFoot -26.130892 -23.341824 20.493231
RightToeBase 9.304618 -0.000000 -0.000000
815
root 18.624998 36.063135 -20.982529 -166.539964 22.609147 -173.587451
Spine -7.162864 3.415820 -7.346013
Head 4.697166 5.610926 16.757286
LeftShoulder -6.334065 -27.449215 2.705088
LeftArm 4.965453 15.678438 -73.710736
LeftForeArm -5.498621 -0.000000 8.713399
LeftHand 1.954560 -0.000000 6.404058
LeftHandThumb1 -26.253704 0.000000 33.147579
RightShoulder -8.725768 -15.977271 12.083909
RightArm 10.031299 -20.070331 62.606592
RightForeArm -23.976243 0.000000 39.005240
RightHand -0.458209 -0.000000 8.564088
RightHandThumb1 -24.326973 -0.000000 -32.862282
LeftUpLeg -13.494314 19.500380 -7.473885
LeftLeg 6.774867 -0.000000 -0.000000
LeftFoot -24.173777 17.556743 -14.823577
LeftToeBase 28.515512 -0.000000 -0.000000
RightUpLeg -8.389512 -3.183955 9.158449
RightLeg 6.450528 -0.000000 -0.000000
RightFoot -26.710195 -23.389459 20.722324
RightToeBase 9.467416 -0.000000 -0.000000
816
root 18.627070 36.034758 -21.011543 -167.296870 21.911039 -173.999140
Spine -6.892666 3.154378 -7.582653
Head 4.888404 5.246790 16.687208
LeftShoulder -6.378099 -27.408360 2.765117
LeftArm 5.198175 15.601987 -73.740842
LeftForeArm -5.317079 -0.000000 9.117997
LeftHand 2.120784 -0.000000 6.406982
LeftHandThumb1 -26.253704 0.000000 33.147579
RightShoulder -8.864080 -16.148428 12.257751
RightArm 10.045099 -19.445697 62.514332
RightForeArm -23.805699 -0.000000 39.791698
RightHand -0.400034 -0.000000 8.506721
RightHandThumb1 -24.326973 -0.000000 -32.862282
LeftUpLeg -13.270173 19.804575 -7.653442
LeftLeg 7.540497 -0.000000 -0.000000
LeftFoot -24.283171 16.681329 -14.746602
LeftToeBase 28.678320 -0.000000 -0.000000
RightUpLeg -8.577508 -3.404324 8.912931
RightLeg 7.291596 -0.000000 -0.000000
RightFoot -27.254367 -23.057675 20.840118
RightToeBase 9.589298 -0.000000 -0.000000
817
root 18.624637 36.008443 -21.034173 -168.009916 21.169489 -174.421773
Spine -6.640971 2.891593 -7.849183
Head 5.041939 4.829422 16.601107
LeftShoulder -6.361591 -27.489442 2.818021
LeftArm 5.240314 15.382517 -73.816692
LeftForeArm -4.850928 -0.000000 9.526459
LeftHand 2.150054 -0.000000 6.978108
LeftHandThumb1 -26.253704 0.000000 33.147579
RightShoulder -9.002247 -16.212724 12.399811
RightArm 10.057441 -18.846601 62.484557
RightForeArm -23.627135 -0.000000 40.386805
RightHand -0.306146 -0.000000 8.353723
RightHandThumb1 -24.326973 -0.000000 -32.862282
LeftUpLeg -12.827102 19.414575 -7.713784
LeftLeg 7.904753 -0.000000 -0.000000
LeftFoot -24.287707 16.372605 -14.629990
LeftToeBase 28.751453 -0.000000 -0.000000
RightUpLeg -8.731661 -3.506752 8.624908
RightLeg 8.041273 -0.000000 -0.000000
RightFoot -27.812616 -22.977008 20.997275
RightToeBase 9.813495 -0.000000 -0.000000
818
root 18.624396 35.982051 -21.059745 -168.797945 20.369195 -174.805192
Spine -6.264281 2.649364 -8.092915
Head 5.192780 4.413523 16.579106
LeftShoulder -6.160000 -27.672153 2.816673
LeftArm 5.057082 14.400294 -73.984548
LeftForeArm -3.889562 -0.000000 9.924595
LeftHand 2.244711 -0.000000 6.699276
LeftHandThumb1 -26.253704 0.000000 33.147579
RightShoulder -9.088228 -16.247122 12.526670
RightArm 10.068298 -18.165338 62.489350
RightForeArm -23.554277 -0.000000 40.887148
RightHand -0.213465 -0.000000 8.268292
RightHandThumb1 -24.326973 -0.000000 -32.862282
LeftUpLeg -12.349026 19.209466 -7.746903
LeftLeg 8.356622 -0.000000 -0.000000
LeftFoot -24.374018 15.836142 -14.664421
LeftToeBase 29.065884 -0.000000 -0.000000
RightUpLeg -8.697213 -3.670153 8.355664
RightLeg 8.700436 -0.000000 -0.000000
RightFoot -28.316210 -22.859444 21.224006
RightToeBase 9.881198 -0.000000 -0.000000
819
root 18.620831 35.957220 -21.080432 -169.473338 19.529441 -175.210851
Spine -6.004372 2.374594 -8.388181
Head 5.299021 3.937970 16.531878
LeftShoulder -6.054724 -27.692848 2.811302
LeftArm 5.024381 14.080571 -74.031631
LeftForeArm -3.498645 -0.000000 10.320903
LeftHand 2.245643 -0.000000 6.920557
LeftHandThumb1 -26.253704 0.000000 33.147579
RightShoulder -9.278763 -16.172413 12.617196
RightArm 10.207572 -17.733918 62.501763
RightForeArm -23.569521 -0.000000 41.077483
RightHand -0.131490 -0.000000 7.935424
RightHandThumb1 -24.326973 -0.000000 -32.862282
LeftUpLeg -11.977312 18.873402 -7.847382
LeftLeg 8.761886 -0.000000 -0.000000
LeftFoot -24.419501 15.465653 -14.686190
LeftToeBase 29.270746 -0.000000 -0.000000
RightUpLeg -8.745604 -3.894764 8.058328
RightLeg 9.377958 -0.000000 -0.000000
RightFoot -28.793839 -22.742174 21.427223
RightToeBase 10.024067 -0.000000 -0.000000
820
root 18.614411 35.932552 -21.100042 -170.036042 18.624179 -175.571806
Spine -5.850306 2.030502 -8.604600
Head 5.463067 3.563793 16.438583
LeftShoulder -6.004382 -27.625691 2.777464
LeftArm 4.995793 13.975876 -74.016441
LeftForeArm -3.292325 -0.000000 10.729841
LeftHand 2.206779 0.000000 7.081381
LeftHandThumb1 -26.253704 0.000000 33.147579
RightShoulder -9.406390 -16.201700 12.696474
RightArm 10.355995 -17.138025 62.488248
RightForeArm -23.511005 -0.000000 41.342252
RightHand -0.146753 -0.000000 7.929340
RightHandThumb1 -24.326973 -0.000000 -32.862282
LeftUpLeg -11.782502 18.692130 -7.985326
LeftLeg 9.271057 -0.000000 -0.000000
LeftFoot -24.466115 15.060651 -14.648449
LeftToeBase 29.065427 -0.000000 -0.000000
RightUpLeg -8.844356 -4.400400 7.816528
RightLeg 10.022369 -0.000000 -0.000000
RightFoot -29.240038 -22.554947 21.541032
RightToeBase 10.120200 -0.000000 -0.000000
821
root 18.614337 35.906507 -21.119941 -170.656367 17.777723 -175.906432
Spine -5.592754 1.838552 -8.860506
Head 5.525424 3.046797 16.361839
LeftShoulder -5.846109 -27.572755 2.731473
LeftArm 4.981740 13.794270 -73.978788
LeftForeArm -3.048035 0.000000 10.953500
LeftHand 2.200269 -0.000000 7.390574
LeftHandThumb1 -26.253704 0.000000 33.147579
RightShoulder -9.526176 -16.091497 12.751990
RightArm 10.438975 -16.516306 62.570579
RightForeArm -23.501948 -0.000000 41.498652
RightHand -0.089447 -0.000000 7.671596
RightHandThumb1 -24.326973 -0.000000 -32.862282
LeftUpLeg -11.497622 18.691614 -8.104590
LeftLeg 9.738859 -0.000000 -0.000000
LeftFoot -24.525600 14.572737 -14.591342
LeftToeBase 29.036675 -0.000000 -0.000000
RightUpLeg -8.836417 -4.888962 7.571784
RightLeg 10.705283 -0.000000 -0.000000
RightFoot -29.771940 -22.262246 21.714205
RightToeBase 10.230724 -0.000000 -0.000000
